<svg xmlns="http://www.w3.org/2000/svg" width="60.031" height="42.031" viewBox="0 0 60.031 42.031">
  <defs>
    <style>
      .cls-1 {
        fill: #5dd39e;
        fill-rule: evenodd;
      }
    </style>
  </defs>
  <path id="logo.svg_logo.png" data-name="logo.svg, logo.png" class="cls-1" d="M672,42.04l0.262,0.169,0.148,0.127a22.529,22.529,0,0,1,2,1.942l0.439-.485H674.9l5.192-5.741v-0.01l0.1-.106c-0.677-.7-1.4-1.4-2.2-2.083-0.3-.248-0.591-0.5-1-0.793-3.275-2.355-4.245-4.057-3.492-6.133a3.017,3.017,0,0,1,1.581-2.006,6.5,6.5,0,0,1,4.107-.084c3.249,1.29,4.53,2.907,6.247,5.3l5.85-6.468a19.759,19.759,0,0,0-8.95-6.811,14.811,14.811,0,0,0-10.809.256,11.465,11.465,0,0,0-6.112,7,11.817,11.817,0,0,0,1.558,11.033A20.549,20.549,0,0,0,672,42.04Zm-4.374,9.2a14.691,14.691,0,0,1-5.7-7.137l-7.951,3.171a23.967,23.967,0,0,0,5.238,8.107c0.588,0.6,1.255,1.11,1.863,1.7a4.83,4.83,0,0,0,1.093.75l0.161-.178v-0.01l5.616-6.209C667.833,51.363,667.732,51.311,667.623,51.24ZM713.989,21.3H702.442L691.87,33.208,667.636,59.994h11.538l14-15.567,8.367,15.2h10.2L699.03,38.185Z" transform="translate(-653.969 -17.969)"/>
</svg>
